<svg viewBox="0 0 48 48" fill="none" xmlns="http://www.w3.org/2000/svg" id="Instagram--Streamline-Unicons" height="48" width="48">
  <desc>
    Instagram Streamline Icon: https://streamlinehq.com
  </desc>
  <path d="M36.5596 8.618c-0.558 0 -1.1038 0.1654 -1.568 0.4756 -0.464 0.3102 -0.8258 0.751 -1.0396 1.2666 -0.2136 0.5158 -0.2692 1.0832 -0.1604 1.6308 0.109 0.5474 0.3776 1.0504 0.7724 1.445 0.3946 0.3948 0.8976 0.6636 1.445 0.7724 0.5476 0.109 1.115 0.0532 1.6308 -0.1606 0.5158 -0.2136 0.9564 -0.5754 1.2666 -1.0394 0.31 -0.4642 0.4756 -1.0098 0.4756 -1.568 0 -0.7486 -0.2972 -1.4666 -0.8266 -1.9958 -0.5292 -0.5294 -1.247 -0.8266 -1.9958 -0.8266Zm10.8192 5.6918c-0.0456 -1.9514 -0.411 -3.8822 -1.0818 -5.7154 -0.5982 -1.5684 -1.5288 -2.9888 -2.7284 -4.163 -1.1646 -1.2056 -2.588 -2.1306 -4.163 -2.7048 -1.8282 -0.6912 -3.7614 -1.065 -5.7154 -1.1054C31.1972 0.48 30.3974 0.48 24 0.48s-7.1972 0 -9.6902 0.1412c-1.9542 0.0404 -3.887 0.4142 -5.7154 1.1054 -1.5718 0.58 -2.9942 1.5042 -4.163 2.7048 -1.2056 1.1646 -2.1306 2.5882 -2.7048 4.163 -0.6912 1.8284 -1.065 3.7612 -1.1054 5.7154C0.48 16.8028 0.48 17.6026 0.48 24s0 7.1972 0.1412 9.6902c0.0404 1.954 0.4142 3.8872 1.1054 5.7154 0.5742 1.575 1.4992 2.9984 2.7048 4.163 1.1688 1.2006 2.5912 2.1248 4.163 2.7048 1.8284 0.691 3.7612 1.065 5.7154 1.1054C16.8028 47.52 17.6026 47.52 24 47.52s7.1972 0 9.6902 -0.1412c1.954 -0.0404 3.8872 -0.4144 5.7154 -1.1054 1.575 -0.5744 2.9984 -1.4992 4.163 -2.7048 1.2048 -1.1698 2.1364 -2.5914 2.7284 -4.163 0.6708 -1.8332 1.0362 -3.7638 1.0818 -5.7154 0 -2.493 0.1412 -3.2928 0.1412 -9.6902s0 -7.1972 -0.1412 -9.6902Zm-4.2336 19.0982c-0.017 1.493 -0.2874 2.9722 -0.7996 4.3748 -0.3756 1.0236 -0.9786 1.9484 -1.764 2.7048 -0.763 0.7772 -1.686 1.3792 -2.7048 1.764 -1.4024 0.5122 -2.8816 0.7824 -4.3748 0.7996 -2.352 0.1176 -3.2222 0.1412 -9.408 0.1412s-7.056 0 -9.408 -0.1412c-1.5502 0.029 -3.0938 -0.2096 -4.5628 -0.7056 -0.9742 -0.4042 -1.8548 -1.0048 -2.5872 -1.764 -0.7806 -0.7556 -1.3764 -1.6812 -1.7404 -2.7048 -0.5744 -1.4224 -0.8928 -2.9356 -0.9408 -4.4688 0 -2.352 -0.1412 -3.2222 -0.1412 -9.408s0 -7.056 0.1412 -9.408c0.0104 -1.5262 0.289 -3.0388 0.8232 -4.4688 0.414 -0.9928 1.0496 -1.8776 1.858 -2.5872 0.7146 -0.8086 1.5976 -1.451 2.5872 -1.8816 1.4336 -0.5174 2.9446 -0.7878 4.4688 -0.7996 2.352 0 3.2222 -0.1412 9.408 -0.1412s7.056 0 9.408 0.1412c1.493 0.017 2.9722 0.2874 4.3748 0.7996 1.0686 0.3966 2.028 1.0416 2.7988 1.8816 0.7708 0.7224 1.3732 1.6058 1.764 2.5872 0.5228 1.4322 0.7934 2.9442 0.7996 4.4688 0.1176 2.352 0.1412 3.2222 0.1412 9.408s-0.0236 7.056 -0.1412 9.408ZM24 11.9342c-2.3854 0.0048 -4.7158 0.7164 -6.697 2.045 -1.981 1.3286 -3.5238 3.2146 -4.4336 5.4198 -0.9096 2.205 -1.1452 4.6304 -0.677 6.9692 0.4684 2.339 1.6194 4.4868 3.3076 6.172 1.6884 1.685 3.8384 2.8318 6.1784 3.2954 2.3398 0.4638 4.7646 0.2234 6.968 -0.6906 2.2034 -0.9138 4.0864 -2.4604 5.411 -4.4442 1.325 -1.9836 2.032 -4.3154 2.032 -6.7008 0.003 -1.5874 -0.3078 -3.1596 -0.9146 -4.6264 -0.6066 -1.4668 -1.4972 -2.7992 -2.6208 -3.9206s-2.4578 -2.0094 -3.9256 -2.6134c-1.4682 -0.6038 -3.041 -0.9116 -4.6284 -0.9054Zm0 19.898c-1.549 0 -3.0632 -0.4594 -4.3512 -1.32 -1.288 -0.8606 -2.292 -2.0838 -2.8848 -3.515 -0.5928 -1.431 -0.7478 -3.0058 -0.4456 -4.5252 0.3022 -1.5192 1.048 -2.915 2.1434 -4.0102 1.0952 -1.0952 2.491 -1.8412 4.0102 -2.1434 1.5194 -0.3022 3.0942 -0.1472 4.5252 0.4456 1.4312 0.5928 2.6544 1.5968 3.515 2.8848 0.8606 1.288 1.32 2.8022 1.32 4.3512 0 1.0286 -0.2026 2.047 -0.5962 2.9972 -0.3936 0.9504 -0.9706 1.8136 -1.6978 2.541 -0.7274 0.7274 -1.5906 1.3042 -2.541 1.6978 -0.9502 0.3936 -1.9686 0.5962 -2.9972 0.5962Z" fill="#000000" stroke-width="2"></path>
</svg>