<svg xmlns="http://www.w3.org/2000/svg" fill="none" viewBox="0 0 64 64" id="Shop-4--Streamline-Solar" height="64" width="64">
  <desc>
    Shop 4 Streamline Icon: https://streamlinehq.com
  </desc>
  <g id="Bold Duotone/Shopping Ecommerce/Shop 4">
    <path id="Vector" fill="#737374" fill-rule="evenodd" d="M10.666666666666666 29.333333333333332c2.9452533333333335 -0.0002666666666666667 5.332746666666666 -2.388 5.332746666666666 -5.333333333333333 0 2.9455999999999998 2.3878399999999997 5.333333333333333 5.333333333333333 5.333333333333333 2.94552 0 5.333333333333333 -2.3877333333333333 5.333333333333333 -5.333333333333333 0 2.9455999999999998 2.3877866666666665 5.333333333333333 5.333386666666667 5.333333333333333s5.333333333333333 -2.3877333333333333 5.333333333333333 -5.333333333333333c0 2.9455999999999998 2.3877333333333333 5.333333333333333 5.333333333333333 5.333333333333333s5.333333333333333 -2.3877333333333333 5.333333333333333 -5.333333333333333c0 2.9455999999999998 2.3877333333333333 5.333333333333333 5.333333333333333 5.333333333333333L53.33333333333333 56.666666666666664h-14.666666666666666V49.33333333333333c0 -2.4922666666666666 0 -3.7383999999999995 -0.536 -4.666666666666666 -0.3509333333333333 -0.608 -0.856 -1.1130666666666666 -1.464 -1.464C35.7384 42.666666666666664 34.492266666666666 42.666666666666664 32 42.666666666666664s-3.7383999999999995 0 -4.666666666666666 0.536c-0.608 0.3509333333333333 -1.1130399999999998 0.856 -1.4641066666666664 1.464C25.333333333333332 45.59493333333333 25.333333333333332 46.84106666666666 25.333333333333332 49.33333333333333v7.333333333333333H10.666666666666666V29.333333333333332Z" clip-rule="evenodd" stroke-width="2.6667"></path>
    <path id="Vector_2" fill="#000000" d="M44.0744 5.333333333333333H19.926c-3.2075199999999997 0 -4.811253333333333 0 -6.100079999999999 0.7965333333333333 -1.2888 0.7965333333333333 -2.0060266666666666 2.2309599999999996 -3.44048 5.0998399999999995L6.64248 20.69144c-0.8647733333333334 2.186026666666667 -1.6214133333333332 4.76256 -0.16573333333333332 6.608559999999999 0.9765866666666666 1.2384 2.4904266666666666 2.033333333333333 4.1899999999999995 2.033333333333333 2.94552 0 5.333333333333333 -2.3877333333333333 5.333333333333333 -5.333333333333333 0 2.9455999999999998 2.387813333333333 5.333333333333333 5.333333333333333 5.333333333333333S26.666666666666664 26.9456 26.666666666666664 24c0 2.9455999999999998 2.388 5.333333333333333 5.333333333333333 5.333333333333333 2.9455999999999998 0 5.333333333333333 -2.3877333333333333 5.333333333333333 -5.333333333333333 0 2.9455999999999998 2.388 5.333333333333333 5.333333333333333 5.333333333333333 2.9455999999999998 0 5.333333333333333 -2.3877333333333333 5.333333333333333 -5.333333333333333 0 2.9455999999999998 2.388 5.333333333333333 5.333333333333333 5.333333333333333 1.699733333333333 0 3.2136 -0.7949333333333333 4.190133333333333 -2.033333333333333 1.4557333333333333 -1.846 0.6991999999999999 -4.422533333333333 -0.1656 -6.608559999999999l-3.7429333333333332 -9.461733333333333c-1.4344000000000001 -2.86888 -2.151733333333333 -4.303306666666666 -3.440533333333333 -5.0998399999999995C48.8856 5.333333333333333 47.28186666666666 5.333333333333333 44.0744 5.333333333333333Z" stroke-width="2.6667"></path>
    <path id="Vector_3" fill="#000000" d="M25.333333333333332 56.666666666666664V49.33333333333333c0 -2.4922666666666666 0 -3.7383999999999995 0.5358933333333333 -4.666666666666666 0.35106666666666664 -0.608 0.8561066666666666 -1.1130666666666666 1.4641066666666664 -1.464C28.2616 42.666666666666664 29.507733333333334 42.666666666666664 32 42.666666666666664s3.7383999999999995 0 4.666666666666666 0.536c0.608 0.3509333333333333 1.1130666666666666 0.856 1.464 1.464 0.536 0.9282666666666667 0.536 2.1744 0.536 4.666666666666666v7.333333333333333h-13.333333333333332Z" stroke-width="2.6667"></path>
    <path id="Vector_4" fill="#000000" d="M38.666666666666664 56.666666666666664H5.333333333333333c-1.10456 0 -2 0.8954666666666666 -2 2s0.8954399999999999 2 2 2h53.33333333333333c1.1045333333333334 0 2 -0.8954666666666666 2 -2s-0.8954666666666666 -2 -2 -2h-20Z" stroke-width="2.6667"></path>
  </g>
</svg>