<svg xmlns="http://www.w3.org/2000/svg" fill="none" viewBox="0 0 64 64" id="Box--Streamline-Solar" height="64" width="64">
  <desc>
    Box Streamline Icon: https://streamlinehq.com
  </desc>
  <g id="Line Duotone/Essentional UI/Box">
    <path id="Vector" stroke="#737373" stroke-linecap="round" d="m56 20 -10.666666666666666 5.333333333333333m0 0s-0.8125333333333333 0.40632 -1.3333333333333333 0.6666666666666666L32 32m13.333333333333332 -6.666666666666666V34.666666666666664m0 -9.333333333333332 -25.333333333333332 -13.333333333333332M32 32 8 20m24 12v25.333333333333332" stroke-width="2.6667"></path>
    <path id="Vector_2" stroke="#000000" stroke-linecap="round" d="m41.54053333333333 9.018586666666666 5.333333333333333 2.7988c5.737866666666666 3.01104 8.606666666666666 4.51656 10.199733333333333 7.221919999999999C58.666666666666664 21.744666666666664 58.666666666666664 25.11112 58.666666666666664 31.843999999999998v0.312c0 6.732799999999999 0 10.099466666666666 -1.5930666666666666 12.8048s-4.461866666666666 4.210666666666667 -10.199733333333333 7.221866666666667l-5.333333333333333 2.7986666666666666C36.85893333333333 57.43813333333333 34.51813333333333 58.666666666666664 32 58.666666666666664c-2.518133333333333 0 -4.858933333333333 -1.2285333333333333 -9.54056 -3.685333333333333l-5.333333333333333 -2.7986666666666666c-5.73776 -3.0111999999999997 -8.606666666666666 -4.516533333333333 -10.199706666666666 -7.221866666666667C5.333333333333333 42.25546666666666 5.333333333333333 38.888799999999996 5.333333333333333 32.156v-0.312c0 -6.73288 0 -10.099333333333332 1.5930666666666666 -12.804693333333333 1.5930399999999998 -2.7053599999999998 4.461946666666666 -4.2108799999999995 10.199706666666666 -7.221919999999999l5.333333333333333 -2.7988C27.141066666666664 6.56176 29.481866666666665 5.333333333333333 32 5.333333333333333c2.518133333333333 0 4.858933333333333 1.2284266666666666 9.540533333333332 3.685253333333333Z" stroke-width="2.6667"></path>
  </g>
</svg>