<svg xmlns="http://www.w3.org/2000/svg" fill="none" viewBox="0 0 64 64" id="Badge-Star-2--Streamline-Cyber" height="64" width="64">
  <desc>
    Badge Star 2 Streamline Icon: https://streamlinehq.com
  </desc>
  <path fill="#ffffff" d="m61.99653333333333 51.0888 -11.033333333333333 -4.728533333333333 2.8525333333333336 -6.179466666666666 -5.454133333333333 -1.3634666666666666v-4.0904l8.181066666666666 -8.1808 -8.181066666666666 -8.1808V10.184266666666666h-6.817333333333334L32 2.0034693333333333 23.819306666666666 10.184266666666666h-8.181066666666666V18.365333333333332l-8.1808 8.1808 8.1808 8.1808v4.0904l-5.453866666666666 1.3634666666666666 2.8688000000000002 6.212 -11.049591999999999 4.696 7.272792 3.1821333333333333 -3.1824 7.7256 12.271466666666665 -4.0904 -2.377866666666667 -5.151199999999999L32 48.361866666666664l16.009866666666667 4.395733333333333 -2.3752 5.148533333333333 12.271466666666665 4.0904 -3.1824 -7.7256 7.2728 -3.1821333333333333Z" stroke-width="2.6667"></path>
  <path fill="#bbd8ff" d="m50.43173333333333 47.51626666666667 -18.431466666666665 -4.608533333333333 -18.431573333333333 4.608533333333333 2.4189333333333334 5.241333333333333 16.012639999999998 -4.395733333333333 16.009866666666667 4.395733333333333 2.4215999999999998 -5.241333333333333Z" stroke-width="2.6667"></path>
  <path fill="#bbd8ff" d="m18.365226666666665 57.90613333333333 -12.271466666666665 4.0904 3.1824 -7.7256 6.2448 -2.527733333333333 2.8442666666666665 6.162933333333333Z" stroke-width="2.6667"></path>
  <path fill="#bbd8ff" d="m45.63466666666666 57.90613333333333 12.271466666666665 4.0904 -3.1824 -7.7256 -6.2448 -2.527733333333333 -2.8442666666666665 6.162933333333333Z" stroke-width="2.6667"></path>
  <path fill="#bbd8ff" d="M48.361599999999996 18.365333333333332V10.184266666666666h-6.817333333333334L32 2.0034693333333333V11.580533333333332l0.013600000000000001 -0.032799999999999996 2.7133333333333334 6.8176h6.817333333333334l-5.301066666666666 4.848533333333333 2.118933333333333 7.422666666666666L32 25.869866666666667v8.857066666666666l16.361866666666664 4.136799999999999v-4.136799999999999l8.1808 -8.1808 -8.181066666666666 -8.1808Z" stroke-width="2.6667"></path>
  <path stroke="#092f63" stroke-linecap="round" stroke-linejoin="round" d="m32.0136 11.547733333333333 2.7133333333333334 6.8176h6.817333333333334l-5.301066666666666 4.848533333333333 2.118933333333333 7.422666666666666L32 25.869866666666667l-6.361866666666666 4.766666666666667 2.1186666666666665 -7.422666666666666L22.45573333333333 18.365333333333332h6.817333333333334l2.7405333333333335 -6.8176Z" stroke-width="2.6667"></path>
  <path stroke="#092f63" stroke-linecap="round" stroke-linejoin="round" d="M48.00986666666666 52.7576 32 48.361866666666664l-16.01269333333333 4.395733333333333" stroke-width="2.6667"></path>
  <path stroke="#092f63" stroke-linecap="round" stroke-linejoin="round" d="m50.9632 46.36026666666667 11.033333333333333 4.728533333333333 -7.2728 3.1821333333333333 3.1824 7.7256 -12.271466666666665 -4.0904 8.181066666666666 -17.72533333333333L32 34.726933333333335l-21.815626666666663 5.453866666666666 8.181066666666666 17.72533333333333 -12.271466666666665 4.0904 3.1824 -7.7256 -7.272792 -3.1821333333333333 11.049591999999999 -4.696" stroke-width="2.6667"></path>
  <path stroke="#092f63" stroke-linecap="round" stroke-linejoin="round" d="M15.638426666666668 38.828266666666664v-4.101333333333333l-8.181066666666666 -8.1808 8.181066666666666 -8.1808V10.184266666666666h8.1808L32 2.0034693333333333 41.544266666666665 10.184266666666666h6.8176V18.365333333333332l8.1808 8.1808 -8.1808 8.1808v4.136799999999999" stroke-width="2.6667"></path>
</svg>