<svg xmlns="http://www.w3.org/2000/svg" fill="none" viewBox="0 0 48 48" id="Star-Badge-Award--Streamline-Atlas" height="48" width="48">
  <desc>
    Star Badge Award Streamline Icon: https://streamlinehq.com
  </desc>
  <path stroke="#000000" stroke-linecap="square" stroke-miterlimit="10" d="M37.9954 24.0002c-0.024 3.2092 -1.1586 6.3112 -3.2106 8.7788 -2.0522 2.4674 -4.8954 4.1482 -8.0466 4.7568 -3.1512 0.6084 -6.4158 0.1072 -9.23914 -1.4188 -2.82334 -1.5262 -5.0312 -3.9826 -6.24836 -6.9522 -1.21718 -2.9696 -1.36856 -6.269 -0.42846 -9.33766 0.94012 -3.06858 2.91374 -5.71698 5.58546 -7.49514 2.67174 -1.77816 5.8767 -2.57638 9.0703 -2.259s6.179 1.73076 8.4484 3.99998c1.2978 1.30578 2.3252 2.85478 3.0234 4.55826 0.6982 1.70356 1.0536 3.52796 1.0456 5.36896Z" stroke-width="2"></path>
  <path stroke="#000000" stroke-linecap="square" stroke-miterlimit="10" d="M46 24c0 1.8858 -2.3048 3.4362 -2.7658 5.1542 -0.4608 1.7182 0.7334 4.2954 -0.1676 5.8458 -0.9008 1.5504 -3.7086 1.781 -4.9866 3.08 -1.278 1.299 -1.4876 4.0648 -3.08 4.9658 -1.5924 0.9008 -4.0648 -0.2934 -5.8458 0.1884C27.3734 43.7162 25.8648 46 24 46c-1.8648 0 -3.4152 -2.3048 -5.15428 -2.7658 -1.73906 -0.4608 -4.19048 0.7334 -5.84572 -0.1884 -1.65524 -0.922 -1.78096 -3.6878 -3.08 -4.9658 -1.29904 -1.278 -4.06476 -1.5086 -4.98666 -3.08 -0.92192 -1.5714 0.31428 -4.0438 -0.16762 -5.8458C4.2838 27.3524 2 25.8858 2 24c0 -1.8858 2.30476 -3.4362 2.76572 -5.15428 0.46094 -1.7181 -0.73334 -4.19048 0.16762 -5.84572 0.90094 -1.65524 3.68762 -1.78096 4.98666 -3.08 1.29904 -1.29904 1.50858 -4.06476 3.08 -4.98666 1.57142 -0.92192 4.04382 0.31428 5.84572 -0.16762C20.6476 4.2838 22.1142 2 24 2c1.8858 0 3.4362 2.30476 5.1542 2.76572 1.7182 0.46094 4.1906 -0.73334 5.8458 0.16762 1.6552 0.90094 1.781 3.68762 3.08 4.98666 1.299 1.29904 4.0648 1.50858 4.9866 3.08 0.922 1.57142 -0.3142 4.04382 0.1676 5.84572C43.7162 20.6476 46 22.1142 46 24Z" stroke-width="2"></path>
  <path fill="#000000" d="m24 15.45118 2.4722 5.15422 5.5316 0.8382 -4.002 4.0228 0.9428 5.6782L24 28.4626l-4.94486 2.682 0.94286 -5.6782 -4.0019 -4.0228 5.5315 -0.8382L24 15.45118Z" stroke-width="2"></path>
</svg>