<svg xmlns="http://www.w3.org/2000/svg" viewBox="0 0 48 48" id="Email-Envelope--Streamline-Pixel" height="48" width="48">
  <desc>
    Email Envelope Streamline Icon: https://streamlinehq.com
  </desc>
  <title>email-envelope</title>
  <g>
    <path d="m45.705 13.7175 -2.2800000000000002 0 0 2.295 2.2800000000000002 0 0 2.2800000000000002 -2.2800000000000002 0 0 2.2800000000000002 2.2800000000000002 0 0 2.295 -2.2800000000000002 0 0 2.2800000000000002 2.2800000000000002 0 0 2.2800000000000002 -2.2800000000000002 0 0 2.295 2.2800000000000002 0 0 2.2800000000000002 -2.2800000000000002 0 0 2.295 2.2800000000000002 0 0 2.2800000000000002 2.295 0 0 -25.14 -2.295 0 0 2.2800000000000002z" fill="#000000" stroke-width="1.5"></path>
    <path d="m41.144999999999996 34.2975 -2.295 0 0 2.2800000000000002 -2.2800000000000002 0 0 -2.2800000000000002 -2.2800000000000002 0 0 2.2800000000000002 -2.295 0 0 -2.2800000000000002 -2.2800000000000002 0 0 2.2800000000000002 -2.295 0 0 -2.2800000000000002 -2.2800000000000002 0 0 2.2800000000000002 -2.2800000000000002 0 0 -2.2800000000000002 -2.295 0 0 2.2800000000000002 -2.2800000000000002 0 0 -2.2800000000000002 -2.295 0 0 2.2800000000000002 -2.2800000000000002 0 0 -2.2800000000000002 -2.2800000000000002 0 0 2.2800000000000002 -2.295 0 0 -2.2800000000000002 -2.2800000000000002 0 0 2.2800000000000002 -4.574999999999999 0 0 2.2800000000000002 43.425 0 0 -2.2800000000000002 -4.5600000000000005 0 0 -2.2800000000000002z" fill="#000000" stroke-width="1.5"></path>
    <path d="m38.849999999999994 16.012500000000003 -4.5600000000000005 0 0 2.2800000000000002 -2.295 0 0 4.574999999999999 2.295 0 0 2.2800000000000002 4.5600000000000005 0 0 -2.2800000000000002 2.295 0 0 -4.574999999999999 -2.295 0 0 -2.2800000000000002z" fill="#000000" stroke-width="1.5"></path>
    <path d="M6.855 29.722500000000004h13.71v2.2800000000000002H6.855Z" fill="#000000" stroke-width="1.5"></path>
    <path d="M6.855 25.1475h9.135v2.2800000000000002H6.855Z" fill="#000000" stroke-width="1.5"></path>
    <path d="m6.855 13.7175 2.2800000000000002 0 0 -2.2800000000000002 2.295 0 0 2.2800000000000002 2.2800000000000002 0 0 -2.2800000000000002 2.2800000000000002 0 0 2.2800000000000002 2.295 0 0 -2.2800000000000002 2.2800000000000002 0 0 2.2800000000000002 2.295 0 0 -2.2800000000000002 2.2800000000000002 0 0 2.2800000000000002 2.2800000000000002 0 0 -2.2800000000000002 2.295 0 0 2.2800000000000002 2.2800000000000002 0 0 -2.2800000000000002 2.295 0 0 2.2800000000000002 2.2800000000000002 0 0 -2.2800000000000002 2.2800000000000002 0 0 2.2800000000000002 2.295 0 0 -2.2800000000000002 4.5600000000000005 0 0 -2.295 -43.425 0 0 2.295 4.574999999999999 0 0 2.2800000000000002z" fill="#000000" stroke-width="1.5"></path>
    <path d="m4.574999999999999 34.2975 0 -2.295 -2.295 0 0 -2.2800000000000002 2.295 0 0 -2.295 -2.295 0 0 -2.2800000000000002 2.295 0 0 -2.2800000000000002 -2.295 0 0 -2.295 2.295 0 0 -2.2800000000000002 -2.295 0 0 -2.2800000000000002 2.295 0 0 -2.295 -2.295 0 0 -2.2800000000000002 -2.2800000000000002 0 0 25.14 2.2800000000000002 0 0 -2.2800000000000002 2.295 0z" fill="#000000" stroke-width="1.5"></path>
  </g>
</svg>