<svg xmlns="http://www.w3.org/2000/svg" fill="none" viewBox="0 0 48 48" id="Facebook--Streamline-Svg-Logos" height="48" width="48">
  <desc>
    Facebook Streamline Icon: https://streamlinehq.com
  </desc>
  <path fill="#1877f2" d="M47.5 24C47.5 11.0213 36.9787 0.5 24 0.5S0.5 11.0213 0.5 24c0 11.72955 8.5936 21.45155 19.8281 23.2145V30.79295H14.36135V24h5.96675V18.82265c0 -5.8897 3.5084 -9.14295 8.8763 -9.14295 2.5711 0 5.26045 0.45895 5.26045 0.45895v5.78325h-2.9633c-2.9193 0 -3.82965 1.81145 -3.82965 3.6699V24h6.51755l-1.0419 6.79295H27.6719V47.2145C38.9064 45.45155 47.5 35.72955 47.5 24Z" stroke-width="0.5"></path>
  <path fill="#ffffff" d="M33.14755 30.79295 34.18945 24H27.6719v-4.4082c0 -1.85845 0.91035 -3.6699 3.82965 -3.6699h2.9633V10.13865s-2.68935 -0.45895 -5.26045 -0.45895c-5.3679 0 -8.8763 3.25325 -8.8763 9.14295V24H14.36135v6.79295h5.96675V47.2145C21.52455 47.40225 22.75085 47.5 24 47.5c1.24915 0 2.47545 -0.09775 3.6719 -0.2855V30.79295h5.47565Z" stroke-width="0.5"></path>
</svg>