<svg xmlns="http://www.w3.org/2000/svg" fill="none" viewBox="0 0 64 64" id="Help-Question-1--Streamline-Core" height="64" width="64">
  <desc>
    Help Question 1 Streamline Icon: https://streamlinehq.com
  </desc>
  <g id="help-question-1--circle-faq-frame-help-info-mark-more-query-question">
    <path id="Vector" fill="#fddc5c" d="M32.00082285714286 61.142399999999995c-16.094354285714285 0 -29.14144914285714 -13.047314285714284 -29.14144914285714 -29.14157714285714 0 -16.094354285714285 13.047094857142856 -29.14144914285714 29.14144914285714 -29.14144914285714 16.094262857142855 0 29.14157714285714 13.047094857142856 29.14157714285714 29.14144914285714 0 16.094262857142855 -13.047314285714284 29.14157714285714 -29.14157714285714 29.14157714285714Z" stroke-width="4.5714"></path>
    <path id="Union" fill="#0c098c" fill-rule="evenodd" d="M32.00082285714286 0.0022321417142857143C14.328502857142857 0.0022321417142857143 0.0022321417142857143 14.328502857142857 0.0022321417142857143 32.00082285714286c0 17.67232 14.32627071542857 31.99872 31.99859071542857 31.99872 17.67232 0 31.99872 -14.3264 31.99872 -31.99872S49.67314285714285 0.0022321417142857143 32.00082285714286 0.0022321417142857143ZM5.716525714285714 32.00082285714286c0 -14.516434285714285 11.767862857142855 -26.28429714285714 26.28429714285714 -26.28429714285714 14.516205714285713 0 26.284434285714283 11.767862857142855 26.284434285714283 26.28429714285714 0 14.516662857142856 -11.76822857142857 26.284434285714283 -26.284434285714283 26.284434285714283 -14.516434285714285 0 -26.28429714285714 -11.767771428571427 -26.28429714285714 -26.284434285714283ZM32 18.857142857142858c-2.8403199999999997 0 -5.142857142857142 2.3025371428571426 -5.142857142857142 5.142857142857142 0 1.5779657142857142 -1.2791771428571428 2.8571428571428568 -2.8571428571428568 2.8571428571428568s-2.8571428571428568 -1.2791771428571428 -2.8571428571428568 -2.8571428571428568c0 -5.996251428571428 4.860891428571429 -10.857142857142856 10.857142857142856 -10.857142857142856S42.857142857142854 18.00374857142857 42.857142857142854 24c0 5.007405714285714 -3.3898971428571425 9.223085714285714 -8 10.477257142857143V36.57142857142857c0 1.5779657142857142 -1.2791771428571428 2.8571428571428568 -2.8571428571428568 2.8571428571428568S29.142857142857142 38.14939428571428 29.142857142857142 36.57142857142857V32c0 -1.5779657142857142 1.2791771428571428 -2.8571428571428568 2.8571428571428568 -2.8571428571428568 2.8403199999999997 0 5.142857142857142 -2.3025371428571426 5.142857142857142 -5.142857142857142S34.84032 18.857142857142858 32 18.857142857142858Zm0 22.857142857142854c2.209142857142857 0 4 1.7908571428571427 4 4 0 2.2089142857142856 -1.7908571428571427 4 -4 4s-4 -1.7910857142857142 -4 -4c0 -2.209142857142857 1.7908571428571427 -4 4 -4Z" clip-rule="evenodd" stroke-width="4.5714"></path>
  </g>
</svg>