<svg xmlns="http://www.w3.org/2000/svg" viewBox="0 0 48 48" id="User-Setting-Fill--Streamline-Mingcute-Fill" height="48" width="48">
  <desc>
    User Setting Fill Streamline Icon: https://streamlinehq.com
  </desc>
  <g fill="none" fill-rule="nonzero">
    <path d="M48 0v48H0V0h48ZM25.188 46.516l-0.024 0.004 -0.142 0.07 -0.04 0.008 -0.028 -0.008 -0.142 -0.072c-0.02 -0.006 -0.038 0 -0.048 0.012l-0.008 0.02 -0.034 0.856 0.01 0.04 0.02 0.026 0.208 0.148 0.03 0.008 0.024 -0.008 0.208 -0.148 0.024 -0.032 0.008 -0.034 -0.034 -0.854c-0.004 -0.02 -0.018 -0.034 -0.032 -0.036Zm0.528 -0.226 -0.028 0.004 -0.368 0.186 -0.02 0.02 -0.006 0.022 0.036 0.86 0.01 0.024 0.016 0.016 0.402 0.184c0.024 0.008 0.046 0 0.058 -0.016l0.008 -0.028 -0.068 -1.228c-0.006 -0.024 -0.02 -0.04 -0.04 -0.044Zm-1.43 0.004a0.046 0.046 0 0 0 -0.054 0.012l-0.012 0.028 -0.068 1.228c0 0.024 0.014 0.04 0.034 0.048l0.03 -0.004 0.402 -0.186 0.02 -0.016 0.006 -0.022 0.036 -0.86 -0.006 -0.024 -0.02 -0.02 -0.368 -0.184Z" stroke-width="2"></path>
    <path fill="#000000" d="M22 4a10 10 0 1 0 0 20 10 10 0 0 0 0 -20Zm0 22c-4.79 0 -9.15 1.388 -12.356 3.344 -1.6 0.976 -2.968 2.128 -3.956 3.38C4.716 33.952 4 35.426 4 37c0 1.69 0.822 3.022 2.006 3.972 1.12 0.9 2.598 1.496 4.168 1.912C13.33 43.718 17.542 44 22 44l1.37 -0.01a2 2 0 0 0 1.78 -2.856A11.946 11.946 0 0 1 24 36c0 -2.504 0.766 -4.824 2.074 -6.746a2 2 0 0 0 -1.44 -3.114c-0.86 -0.092 -1.74 -0.14 -2.634 -0.14Zm19.232 4.938a2 2 0 1 0 -3.464 -2l-0.672 1.164a5.99 5.99 0 0 0 -2.194 -0.002l-0.67 -1.162a2 2 0 1 0 -3.464 2l0.67 1.16a5.994 5.994 0 0 0 -1.094 1.902H29a2 2 0 0 0 0 4h1.342a6.042 6.042 0 0 0 1.098 1.9l-0.672 1.162a2 2 0 1 0 3.464 2l0.672 -1.162c0.718 0.132 1.46 0.136 2.194 0l0.67 1.162a2 2 0 1 0 3.464 -2l-0.67 -1.16c0.484 -0.568 0.852 -1.214 1.094 -1.902h1.344a2 2 0 1 0 0 -4h-1.342a6.058 6.058 0 0 0 -1.098 -1.9l0.672 -1.162Z" stroke-width="2"></path>
  </g>
</svg>