<svg xmlns="http://www.w3.org/2000/svg" fill="none" viewBox="0 0 48 48" id="Search-Magnifier--Streamline-Freehand" height="48" width="48">
  <desc>
    Search Magnifier Streamline Icon: https://streamlinehq.com
  </desc>
  <path fill="#020202" d="M32.3904 16.10184c-0.3578 -1.9572 -1.218 -3.78784 -2.4964 -5.3125 -0.3794 -0.45936 -0.7788 -0.9986 -1.2382 -1.45796 -0.3344 -0.35008 -0.7262 -0.64052 -1.1584 -0.85878 -0.1502 -0.07606 -0.3232 -0.09364 -0.4856 -0.04936s-0.3024 0.14728 -0.3932 0.28902h-0.2596c-1.9972 1.15836 -3.9944 2.39662 -5.8318 3.71476 -0.93866 0.65908 -1.87734 1.31814 -2.79604 1.99718L15.05494 16.68102c-1.37806 1.21828 -2.836 2.45654 -4.17412 3.79458 -0.61912 0.6192 -1.1983 1.2582 -1.75752 1.9972 -0.3094 -1.0692 -0.40442 -2.1892 -0.2796 -3.2953 0.57724 -3.34548 2.16654 -6.43348 4.55358 -8.84752 0.6587 -0.6422 1.43064 -1.15682 2.27678 -1.51786 1.19666 -0.43694 2.46082 -0.66004 3.73474 -0.65906 2.0178 -0.00446 4.029 0.23018 5.9916 0.699 0.138 0.00954 0.2752 -0.02902 0.388 -0.10912 0.1128 -0.08008 0.1944 -0.19678 0.231 -0.33026 0.0368 -0.15608 0.0116 -0.32034 -0.0704 -0.45816 -0.082 -0.13784 -0.2142 -0.2385 -0.369 -0.2808 -2.0286 -0.5477 -4.1118 -0.86922 -6.21114 -0.95864 -1.45686 -0.05262 -2.9113 0.15708 -4.29394 0.61912 -4.254 1.4979 -7.84894 7.5893 -8.40814 11.58366 -0.25168 2.12094 0.08696 4.27034 0.97862 6.21134 0.88484 1.91 2.22986 3.5708 3.91448 4.833 0.95584 0.693 2.03286 1.201 3.17552 1.498 1.07406 0.2996 2.18068 0.4674 3.29534 0.4992 3.11126 0.062 6.16366 -0.853 8.72766 -2.6162 2.5808 -1.7444 4.4458 -4.361 5.2526 -7.3696 0.5416 -1.9082 0.671 -3.90976 0.3794 -5.87176ZM9.7624 24.0906c-0.05506 -0.1096 -0.1018 -0.223 -0.1398 -0.3396 0.75984 -0.7314 1.56712 -1.412 2.4166 -2.037 1.45794 -1.1584 2.99576 -2.19698 4.47368 -3.25548 1.47792 -1.05852 2.51646 -1.99718 3.73472 -2.9758 1.2182 -0.97862 2.4166 -1.9972 3.6548 -3.0557 1.2384 -1.0585 2.117 -1.67764 3.1956 -2.43656 0.1694 0.12828 0.3296 0.26844 0.4792 0.4194 0.3996 0.43938 0.759 0.95866 1.0986 1.39804 0.9586 1.1636 1.6414 2.5292 1.9972 3.99436 -2.1172 1.29816 -4.274 2.4765 -6.391 3.7547 -1.569 0.92604 -3.0888 1.93264 -4.55366 3.01584 -2.31198 1.7726 -4.4337 3.7806 -6.33106 5.9914l-0.43938 -0.2596c-1.39574 -1.0876 -2.49476 -2.5094 -3.1955 -4.1342v-0.0798Zm20.531 -2.6962c-0.7506 2.5538 -2.4046 4.7472 -4.6534 6.1712 -2.229 1.4262 -4.8462 2.124 -7.48942 1.9972 -0.94534 -0.0122 -1.88512 -0.1464 -2.79606 -0.3994 -0.25964 0 -0.4993 -0.1798 -0.73896 -0.2596 0.89874 -0.779 1.79746 -1.498 2.73614 -2.197 0.93868 -0.699 1.99718 -1.318 2.9359 -1.9972l2.9558 -1.997c2.583 -1.771 5.1194 -3.59502 7.6092 -5.47236 0.0636 1.43322 -0.1258 2.86636 -0.5592 4.23396v-0.0798Z" stroke-width="2"></path>
  <path fill="#0c6fff" d="M46.4906 41.1066c-0.08 -0.4362 -0.2004 -0.8642 -0.3596 -1.2782 -0.272 -0.7094 -0.6344 -1.3806 -1.0784 -1.9972 -0.6068 -0.8776 -1.2742 -1.7118 -1.9972 -2.4964 -1.057 -1.1482 -2.1914 -2.2226 -3.3952 -3.2156 -1.6576 -1.358 -3.3952 -2.5962 -5.1528 -3.9942 0.5264 -1.011 0.9608 -2.067 1.2982 -3.1556 0.496 -1.6344 0.8698 -3.3032 1.1184 -4.993 0.3136 -1.62516 0.4608 -3.27804 0.4394 -4.93304 -0.0156 -1.15494 -0.211 -2.3004 -0.5792 -3.3952 -0.315 -0.9894 -0.6954 -1.95682 -1.1384 -2.89592 -0.3124 -0.66404 -0.694 -1.2933 -1.1384 -1.87736 -0.756 -0.97594 -1.6432 -1.84292 -2.6362 -2.57636 -1.4714 -1.04124 -3.0602 -1.90596 -4.7334 -2.576366 -1.1654 -0.508216 -2.367 -0.928792 -3.5948 -1.258224 -1.3036 -0.3386462 -2.648 -0.493262 -3.99446 -0.45935226C17.89206 0.094699 16.25736 0.42433 14.69538 0.983198c-1.5346 0.557032 -3.01256 1.259222 -4.41376 2.097042 -1.2005 0.67928 -2.33106 1.47536 -3.37524 2.37664C2.43268 9.39134 1.513984 17.97922 1.45407 18.9179c-0.213884 2.5395 0.154986 5.0943 1.07847 7.4695 0.24292 0.6026 0.52306 1.1896 0.83882 1.7574 0.45936 0.799 0.97862 1.5778 1.51786 2.3568 1.0076 1.5452 2.24704 2.926 3.67482 4.0942 0.99652 0.792 2.12584 1.4006 3.3353 1.7974 1.38092 0.4508 2.79722 0.7848 4.23402 0.9986 0.98284 0.1646 1.9803 0.2248 2.9758 0.1798 1.54884 -0.1 3.07884 -0.3954 4.55364 -0.8788 1.4312 -0.5014 2.8202 -1.1158 4.154 -1.8374 0.2704 0.3194 0.5236 0.6528 0.759 0.9986 0.8588 1.3182 1.5378 2.7362 2.3368 3.9944 0.5618 0.8682 1.1754 1.702 1.8374 2.4964 0.6252 0.7808 1.2918 1.5276 1.9972 2.2368 1.942 1.8038 4.387 2.9742 7.01 3.3554 0.524 0.0942 1.0614 0.0826 1.5808 -0.0338 0.5194 -0.1164 1.0102 -0.3356 1.4438 -0.6444 0.4336 -0.3088 0.801 -0.7012 1.0806 -1.1542 0.2798 -0.4528 0.4662 -0.957 0.5482 -1.483 0.081 -0.349 0.141 -0.7024 0.1798 -1.0584 0.0194 -0.3526 0.0194 -0.706 0 -1.0586 0.0072 -0.468 -0.0262 -0.9358 -0.0998 -1.398Zm-2.3168 2.9358c-0.1018 0.5064 -0.3958 0.9536 -0.8204 1.2478 -0.4246 0.2942 -0.9466 0.4124 -1.4564 0.33 -2.0936 -0.2616 -4.065 -1.1294 -5.672 -2.4964 -0.7044 -0.626 -1.3712 -1.2928 -1.9972 -1.9972 -0.6624 -0.682 -1.2764 -1.4094 -1.8374 -2.177 -0.8788 -1.2382 -1.6776 -2.6162 -2.5964 -3.8744 -0.2438 -0.3194 -0.5036 -0.626 -0.7788 -0.9188l0.2596 -0.1798c0.4426 -0.3172 0.863 -0.6642 1.2582 -1.0384 0.1236 -0.133 0.1922 -0.3078 0.1922 -0.4894 0 -0.1816 -0.0686 -0.3564 -0.1922 -0.4894 -0.1272 -0.1268 -0.2996 -0.198 -0.4792 -0.198 -0.1798 0 -0.3522 0.0712 -0.4794 0.198 -0.3416 0.3164 -0.7092 0.6036 -1.0984 0.8588 -0.3834 0.2716 -0.7836 0.5184 -1.1984 0.739 -1.2892 0.655 -2.6242 1.2156 -3.9944 1.6776 -1.3872 0.4246 -2.824 0.6664 -4.2739 0.719 -1.10182 0.0276 -2.20264 -0.0864 -3.27538 -0.3394 -1.1138 -0.2126 -2.20902 -0.5132 -3.27538 -0.8988 -1.25498 -0.4522 -2.39892 -1.167 -3.35526 -2.097 -0.98862 -0.9662 -1.86006 -2.0456 -2.59634 -3.2154 -0.45936 -0.719 -0.93868 -1.438 -1.35808 -2.237 -0.26134 -0.4924 -0.4947 -0.9992 -0.69902 -1.5178 -0.76708 -2.1 -1.04708 -4.3468 -0.81884 -6.57072 0.9187 -10.58508 6.29112 -13.10152 7.82896 -13.98028 1.26594 -0.76202 2.60386 -1.39754 3.99436 -1.89734 1.3514 -0.5101 2.77212 -0.8131 4.21406 -0.89872 1.12282 -0.03104 2.24482 0.0899 3.33522 0.3595 1.1288 0.27406 2.2366 0.62778 3.3154 1.0585 1.2802 0.4938 2.5162 1.0951 3.6948 1.79746 1.1376 0.64122 2.152 1.4798 2.9958 2.4765 0.3788 0.47008 0.7068 0.97886 0.9786 1.51786 0.4416 0.85744 0.822 1.74508 1.1384 2.65626 0.3264 0.9269 0.5212 1.89496 0.5792 2.87594 0.0482 1.55714 -0.052 3.11534 -0.2996 4.65344 -0.1708 1.3444 -0.4176 2.6778 -0.739 3.9944 -0.322 1.3198 -0.7908 2.5992 -1.398 3.8146 -0.3218 0.697 -0.7026 1.3652 -1.1384 1.9972 -0.4288 0.6068 -0.91 1.1748 -1.438 1.6976 -0.0576 0.055 -0.104 0.121 -0.1362 0.194 -0.0322 0.0728 -0.0498 0.1514 -0.0516 0.2312 -0.0038 0.161 0.0566 0.317 0.1678 0.4336 0.1112 0.1164 0.2642 0.184 0.4254 0.1878 0.161 0.0038 0.317 -0.0566 0.4334 -0.1678 0.587 -0.5688 1.128 -1.1832 1.6178 -1.8374 0.2196 -0.2996 0.3994 -0.6192 0.5992 -0.9388 1.6176 1.3582 3.2354 2.6364 4.7732 3.9944 1.0868 0.9914 2.1012 2.0594 3.0356 3.1956 0.6268 0.7494 1.207 1.5364 1.7376 2.3566 0.317 0.5068 0.5718 1.05 0.759 1.6176 0.101 0.3276 0.181 0.661 0.2396 0.9986 0.0198 0.3194 0.0198 0.6394 0 0.9588l-0.1198 1.6176Z" stroke-width="2"></path>
</svg>