<svg xmlns="http://www.w3.org/2000/svg" viewBox="0 0 48 48" id="House-Line--Streamline-Mingcute" height="48" width="48">
  <desc>
    House Line Streamline Icon: https://streamlinehq.com
  </desc>
  <g fill="none" fill-rule="evenodd">
    <path d="m48 0 0 48 -48 0L0 0l48 0ZM25.187 46.5156l-0.0232 0.0034 -0.142 0.071 -0.038 0.0074 -0.0304 -0.0074 -0.142 -0.071c-0.0198 -0.0062 -0.0374 -0.001 -0.0472 0.0108l-0.0082 0.0218 -0.0342 0.8546 0.01 0.0408 0.022 0.0244 0.2072 0.148 0.0296 0.0078 0.0236 -0.0078 0.2072 -0.148 0.0252 -0.032 0.0068 -0.0332 -0.0342 -0.8546c-0.004 -0.0202 -0.0172 -0.033 -0.0322 -0.036Zm0.5298 -0.225 -0.0278 0.004 -0.3694 0.1848 -0.0198 0.0204 -0.0054 0.0224 0.0358 0.859 0.0096 0.0256 0.017 0.0142 0.4018 0.1854c0.0242 0.0074 0.0458 -0.0004 0.057 -0.016l0.008 -0.028 -0.0682 -1.2294c-0.0048 -0.0238 -0.0206 -0.039 -0.0386 -0.0424Zm-1.4308 0.004c-0.0196 -0.0098 -0.0416 -0.004 -0.0548 0.0106l-0.0114 0.0278 -0.0682 1.2294c-0.0014 0.023 0.014 0.0414 0.0336 0.0468l0.0314 -0.0028 0.4018 -0.1854 0.0188 -0.0162 0.0078 -0.0236 0.0358 -0.859 -0.0064 -0.0252 -0.0188 -0.0176 -0.3696 -0.1848Z" stroke-width="2"></path>
    <path fill="#000000" d="M35.9488 7.55024c0.2484 1.07628 -0.4228 2.15012 -1.4992 2.3985L30 10.9756l0 9.02436 8 0c2.209 0 4 1.79084 4 4.00004l0 14c0 2.209 -1.791 4 -4 4L11.99996 42c-2.20914 0 -4 -1.791 -4 -4l0 -21.9996c-0.91112 0.0008 -1.7352 -0.62516 -1.94878 -1.55072 -0.24838 -1.07628 0.42278 -2.15014 1.49906 -2.3985l25.99996 -6c1.0764 -0.24838 2.1502 0.42278 2.3986 1.49906ZM38 24l-18.00004 0 0 14L24 38l0 -6c0 -2.1087818 1.6317 -3.8363356 3.7014678 -3.9890288L28 28l2 0c2.108591 0 3.8363182 1.6317 3.9890278 3.7014678L34 32l0 6 4 0 0 -14Zm-8 8 -2 0 0 6 2 0 0 -6ZM15.99996 14.20636l-4 0.92308 0 22.87056 4 0 0 -23.79364ZM26 11.89868l-6.00004 1.3846 0 6.71668 6.00004 0 0 -8.10128Z" stroke-width="2"></path>
  </g>
</svg>