<svg xmlns="http://www.w3.org/2000/svg" fill="none" viewBox="0 0 48 48" id="Youtube--Streamline-Svg-Logos" height="48" width="48">
  <desc>
    Youtube Streamline Icon: https://streamlinehq.com
  </desc>
  <path fill="#ff0000" d="M15.1773 20.3906c-0.1752 -0.6474 -0.6809 -1.15315 -1.3283 -1.32835 -1.1647 -0.3176 -5.85235 -0.3176 -5.85235 -0.3176s-4.68761 0.0096 -5.852295 0.32725c-0.64741 0.1752 -1.15314 0.6809 -1.328325 1.3283 -0.3522935 2.0695 -0.488976 5.22285 0.009625 7.20955 0.17519 0.6474 0.680915 1.1531 1.328325 1.3283 1.164685 0.31765 5.85232 0.31765 5.85232 0.31765s4.68765 0 5.8523 -0.31765c0.6474 -0.1752 1.15315 -0.6809 1.32835 -1.3283 0.37155 -2.0724 0.48605 -5.2238 -0.00965 -7.21915Z" stroke-width="0.5"></path>
  <path fill="#ffffff" d="m6.5044 26.2528 3.8887 -2.2524 -3.8887 -2.25235v4.50475Z" stroke-width="0.5"></path>
  <path fill="#282828" d="M45.5942 21.7961c0.51015 0 0.8952 0.09625 1.1647 0.2791 0.2695 0.1829 0.46205 0.4717 0.57755 0.8663 0.1155 0.39465 0.1636 0.9337 0.1636 1.62675v1.12615h-2.47375v0.34655l0.0385 0.9529c0.0289 0.2118 0.077 0.3658 0.154 0.46205s0.20215 0.14435 0.3658 0.14435c0.2214 0 0.3754 -0.0866 0.4524 -0.25985 0.0866 -0.17325 0.1251 -0.46205 0.13475 -0.8567l1.2802 0.077c0.0096 0.05775 0.0096 0.1348 0.0096 0.23105 0 0.6064 -0.1636 1.0588 -0.5005 1.3572 -0.3369 0.29835 -0.79895 0.4524 -1.40535 0.4524 -0.73155 0 -1.2417 -0.23105 -1.53045 -0.68345 -0.28875 -0.4524 -0.44275 -1.16465 -0.44275 -2.1176v-1.1647c0.0327 -1.6363 0.3205 -2.8347 2.0117 -2.8395Zm-17.79755 0.1251v4.8224c0 0.28875 0.02885 0.50055 0.09625 0.62565 0.13665 0.2676 0.4909 0.19925 0.6834 0.0674 0.11115 -0.07515 0.2007 -0.178 0.2599 -0.2984V21.9212h1.4727v6.57425h-1.1551l-0.1251 -0.80855h-0.0289c-0.31765 0.6064 -0.7893 0.91445 -1.41495 0.91445 -0.96295 -0.0025 -1.1985 -0.6962 -1.2546 -1.4008l-0.0037 -0.04975c-0.0073 -0.1078 -0.01075 -0.21545 -0.01225 -0.32055v-4.90905h1.48235Zm7.5945 0v4.8224c0 0.28875 0.0289 0.50055 0.09625 0.62565 0.1367 0.2676 0.4909 0.19925 0.68345 0.0674 0.1111 -0.07515 0.2007 -0.178 0.25985 -0.2984V21.9212h1.4727v6.57425h-1.15505l-0.1251 -0.80855h-0.0289c-0.31765 0.6064 -0.7893 0.91445 -1.41495 0.91445 -0.963 -0.0025 -1.19855 -0.6962 -1.25465 -1.4008l-0.00365 -0.04975c-0.00735 -0.1078 -0.01075 -0.21545 -0.01225 -0.32055v-4.90905h1.4823Zm-11.86825 -0.1251c0.48125 0 0.8759 0.09625 1.1647 0.2984 0.28875 0.2021 0.51015 0.51015 0.6449 0.93365 0.13475 0.4235 0.20215 0.99145 0.20215 1.6941v0.9529c0 0.7027 -0.0674 1.26095 -0.20215 1.6845 -0.13475 0.4235 -0.34655 0.73155 -0.6449 0.93365 -0.2984 0.1925 -0.7027 0.2984 -1.2032 0.2984 -0.5198 0.00965 -0.92405 -0.09625 -1.22245 -0.28875 -0.2984 -0.20215 -0.51015 -0.51015 -0.6353 -0.9337 -0.1251 -0.4235 -0.18285 -0.9818 -0.18285 -1.68445v-0.95295c0 -0.70265 0.06735 -1.2802 0.21175 -1.7037 0.1444 -0.43315 0.36575 -0.74115 0.6738 -0.93365 0.308 -0.19255 0.70265 -0.2984 1.19355 -0.2984Zm16.69065 -2.6374v3.4652h0.0096c0.1348 -0.2503 0.30805 -0.4524 0.5487 -0.60645 0.2247 -0.15115 0.48955 -0.2316 0.7604 -0.231 0.35615 0 0.62565 0.09625 0.8278 0.27915 0.20215 0.1925 0.3465 0.4909 0.43315 0.9048 0.0839 0.40095 0.1317 0.9555 0.1346 1.65485l0.00015 0.0681v1.03955c0 0.9722 -0.12515 1.6941 -0.35615 2.15615 -0.24065 0.462 -0.6064 0.69305 -1.10695 0.69305 -0.2791 0 -0.5294 -0.0674 -0.7604 -0.19255 -0.20445 -0.11915 -0.37375 -0.2899 -0.4911 -0.4949l-0.01905 -0.0345h-0.0289l-0.154 0.62565h-1.22245V19.1587h1.4246Zm-5.8908 0.3369v1.19355h-1.4631v7.8063h-1.44385V20.68915h-1.4727v-1.19355h4.37965Zm-15.8725 0 0.0008 0.0036c0.0141 0.0626 0.20875 0.9278 0.42275 1.93575l0.01695 0.0799c0.00845 0.04005 0.01695 0.0803 0.0255 0.1207l0.01705 0.08105 0.00855 0.04065 0.01705 0.0815c0.00285 0.0136 0.0057 0.02725 0.00855 0.04085l0.01705 0.08185 0.0248 0.1196c0.1445 0.698 0.28245 1.39805 0.365 1.90005h0.0385c0.07915 -0.4503 0.19395 -1.02655 0.31645 -1.61485l0.0321 -0.15365c0.0161 -0.0769 0.0323 -0.15385 0.04855 -0.23055l0.02525 -0.11915c0.23565 -1.10825 0.4701 -2.14365 0.51375 -2.3356l0.0028 -0.0124c0.0029 -0.0127 0.0044 -0.0193 0.0044 -0.0193h1.4727l-1.7037 6.0737v2.9165h-1.45345v-2.9069h-0.00965l-1.68445 -6.0833h1.4727Zm5.04375 3.3208c-0.2021 0 -0.3369 0.10585 -0.4235 0.32725 -0.08665 0.2214 -0.12515 0.5583 -0.12515 1.02995v2.0502c0 0.4813 0.0385 0.83745 0.1155 1.0492 0.077 0.21175 0.2214 0.31765 0.43315 0.31765 0.20215 0 0.34655 -0.1059 0.43315 -0.31765 0.08665 -0.21175 0.12515 -0.5679 0.12515 -1.0492v-2.0502c0 -0.47165 -0.0385 -0.8182 -0.12515 -1.02995 -0.0866 -0.2214 -0.231 -0.32725 -0.43315 -0.32725Zm16.97945 0.1925c-0.1173 0.1083 -0.2008 0.24195 -0.25045 0.40895l-0.00945 0.0338v3.73475c0.11935 0.2021 0.28875 0.33685 0.58715 0.3465 0.154 0 0.27915 -0.05775 0.3754 -0.17325 0.09625 -0.1155 0.16365 -0.30805 0.20215 -0.57755 0.03695 -0.25875 0.05615 -0.61505 0.05765 -1.06895l0.0001 -0.05725v-0.85665c0 -0.5198 -0.01925 -0.91445 -0.04815 -1.19355 -0.0385 -0.27915 -0.0866 -0.4813 -0.17325 -0.5968 -0.1675 -0.24065 -0.5294 -0.23775 -0.74115 0Zm5.0919 -0.2214c-0.16365 0.00965 -0.27915 0.05775 -0.34655 0.1444 -0.077 0.09625 -0.1251 0.24065 -0.154 0.4524 -0.0283 0.2075 -0.0381 0.93275 -0.0385 0.96165l0 0.47255h1.07805l-0.00005 -0.41675 0 0.00805c-0.00055 0.14565 -0.0036 -0.0846 -0.01025 -0.36725l-0.0009 -0.03795c-0.00605 -0.24845 -0.0149 -0.5254 -0.0273 -0.6203 -0.02885 -0.2214 -0.077 -0.3754 -0.154 -0.46205 -0.077 -0.0866 -0.1925 -0.13475 -0.3465 -0.13475Z" stroke-width="0.5"></path>
</svg>