<svg xmlns="http://www.w3.org/2000/svg" fill="none" viewBox="0 0 48 48" id="Half-Star-2--Streamline-Plump" height="48" width="48">
  <desc>
    Half Star 2 Streamline Icon: https://streamlinehq.com
  </desc>
  <g id="half-star-2--reward-rating-rate-social-star-media-favorite-like-stars-half">
    <path id="Intersect" fill="#8fbffa" d="M24 3v36.8789l-9.6717 4.7971c-2.2446 1.1133 -4.78459 -0.798 -4.46632 -3.3608L11.243 30.1945l-7.38811 -8.1653c-1.69836 -1.877 -0.73037 -4.9625 1.70644 -5.4393l10.55447 -2.0652 5.1243 -9.8178C21.834 3.56897 22.917 3 24 3" stroke-width="1"></path>
    <path id="Subtract" fill="#ffffff" fill-rule="evenodd" d="m24 39.8789 9.6717 4.7971c2.2446 1.1133 4.7846 -0.798 4.4663 -3.3608l-1.381 -11.1207 7.3881 -8.1653c1.6984 -1.877 0.7304 -4.9625 -1.7064 -5.4393l-10.5545 -2.0652 -5.1243 -9.8178C26.166 3.56897 25.083 3 24 3z" clip-rule="evenodd" stroke-width="1"></path>
    <path id="Intersect_2" stroke="#2859c5" stroke-linecap="round" stroke-linejoin="round" d="M24 3v36.8789l-9.6717 4.7971c-2.2446 1.1133 -4.78459 -0.798 -4.46632 -3.3608L11.243 30.1945l-7.38811 -8.1653c-1.69836 -1.877 -0.73037 -4.9625 1.70644 -5.4393l10.55447 -2.0652 5.1243 -9.8178C21.834 3.56897 22.917 3 24 3" stroke-width="1"></path>
    <path id="Subtract_2" stroke="#2859c5" stroke-linecap="round" stroke-linejoin="round" d="M24 3c0.5934 0 1.1515 0.18995 1.6764 0.52283M24 39.8789c0.3753 0.1861 0.8207 0.4438 1.3185 0.7453M28.943 7.79651c0.2351 0.46691 0.4594 0.94502 0.6736 1.42295 0.3025 0.67511 0.6626 1.30174 1.0748 1.87594m4.9487 3.6474c0.6289 0.2114 1.2882 0.367 1.9734 0.4635 0.6167 0.0869 1.2361 0.1889 1.8395 0.3132m4.6929 2.1014c0.3764 0.4075 0.6434 0.8798 0.7685 1.4293 0.1417 0.6226 0.0661 1.2647 -0.1699 1.9142m-3.2005 4.1903c-0.4417 0.4162 -0.8998 0.8241 -1.3576 1.2199 -0.508 0.4394 -0.9566 0.9161 -1.3439 1.4238m-1.7706 5.5649c0.0226 0.6505 0.1154 1.3114 0.2805 1.9759 0.1566 0.6305 0.3062 1.274 0.4348 1.9147m0.0864 5.6868c-0.2274 0.6282 -0.5868 1.1468 -1.1166 1.5119 -0.4056 0.2794 -0.8671 0.4379 -1.3696 0.4985m-3.978 -0.8678c-0.4683 -0.2048 -0.9404 -0.4352 -1.4094 -0.6807 -0.3962 -0.2073 -0.7903 -0.4255 -1.1783 -0.6481" stroke-width="1"></path>
  </g>
</svg>