<svg viewBox="0 0 64 64" fill="#000000" xmlns="http://www.w3.org/2000/svg" id="Police-Badge-Fill--Streamline-Remix-Fill" height="64" width="64">
  <desc>
    Police Badge Fill Streamline Icon: https://streamlinehq.com
  </desc>
  <path d="M7.76832 31.130399999999998C8.628906666666666 27.187466666666666 9.436399999999999 23.48813333333333 5.333333333333333 17.333333333333332l9.333333333333332 -10.666666666666666S24 10.666666666666666 32 4c8 6.666666666666666 17.333333333333332 2.6666666666666665 17.333333333333332 2.6666666666666665l9.333333333333332 10.666666666666666c-4.103466666666666 6.154933333333333 -3.295733333333333 9.854399999999998 -2.4352 13.797333333333334 0.8173333333333332 3.7442666666666664 1.6824 7.707999999999999 -1.5648 14.202666666666666 -3.0866666666666664 6.173333333333333 -8.405866666666666 8.3272 -13.3736 10.338666666666665 -3.616 1.4642666666666666 -7.0456 2.853066666666667 -9.292266666666666 5.661333333333333 -2.2469333333333332 -2.8082666666666665 -5.6768 -4.197066666666666 -9.292826666666667 -5.661066666666667C17.739866666666664 53.660533333333326 12.420213333333333 51.50666666666667 9.333359999999999 45.33333333333333c-3.2475466666666666 -6.494666666666667 -2.3823466666666664 -10.458666666666666 -1.56504 -14.202933333333334Zm30.571946666666665 2.9295999999999998 6.3402666666666665 -6.180266666666666 -8.762133333333333 -1.2731733333333333L31.99973333333333 18.666666666666664l-3.9186666666666667 7.939893333333334 -8.762053333333332 1.2731733333333333 6.340373333333333 6.180266666666666 -1.496773333333333 8.726933333333333L31.99973333333333 38.666666666666664l7.837066666666666 4.120266666666666 -1.4965333333333333 -8.726933333333333Z" stroke-width="2.6667"></path>
</svg>