<svg viewBox="0 0 64 64" xmlns="http://www.w3.org/2000/svg" id="Ranking-Stars-Ribbon--Streamline-Ultimate" height="64" width="64">
  <desc>
    Ranking Stars Ribbon Streamline Icon: https://streamlinehq.com
  </desc>
  <path d="M11.962666666666665 45.53333333333333C11.264 50.498666666666665 1.3333333333333333 52.981333333333325 1.3333333333333333 52.981333333333325l6.666666666666666 4 -2.6666666666666665 5.333333333333333s12 -1.3333333333333333 12 -6.666666666666666a2.6106666666666665 2.6106666666666665 0 0 0 -2.6666666666666665 -2.6666666666666665" fill="none" stroke="#000000" stroke-linecap="round" stroke-linejoin="round" stroke-width="2.6667"></path>
  <path d="M52.03733333333333 45.53333333333333c0.6986666666666667 4.965333333333334 10.629333333333333 7.448 10.629333333333333 7.448l-6.666666666666666 4 2.6666666666666665 5.333333333333333s-12 -1.3333333333333333 -12 -6.666666666666666a2.6106666666666665 2.6106666666666665 0 0 1 2.6666666666666665 -2.6666666666666665" fill="none" stroke="#000000" stroke-linecap="round" stroke-linejoin="round" stroke-width="2.6667"></path>
  <path d="M32 44.983999999999995c13.333333333333332 0 17.333333333333332 8 17.333333333333332 8l4.592 -12.629333333333332a2.6666666666666665 2.6666666666666665 0 0 0 -1.192 -3.2319999999999998A43.117333333333335 43.117333333333335 0 0 0 32 31.650666666666666a43.117333333333335 43.117333333333335 0 0 0 -20.733333333333334 5.4719999999999995 2.6666666666666665 2.6666666666666665 0 0 0 -1.192 3.2319999999999998L14.666666666666666 52.983999999999995s4 -8 17.333333333333332 -8" fill="none" stroke="#000000" stroke-linecap="round" stroke-linejoin="round" stroke-width="2.6667"></path>
  <path d="M31.402666666666665 2.1759999999999997c0.32799999999999996 -0.6559999999999999 0.864 -0.6559999999999999 1.192 0L36 8.984h8c0.7333333333333334 0 0.8346666666666667 0.3333333333333333 0.224 0.7386666666666667L37.33333333333333 14.317333333333332 40.864 23.733333333333334c0.26666666666666666 0.688 -0.021333333333333333 0.8986666666666667 -0.616 0.472L32 18.31733333333333 23.752 24.208c-0.5973333333333333 0.42666666666666664 -0.8746666666666667 0.21333333333333332 -0.616 -0.472L26.666666666666664 14.317333333333332 19.776 9.722666666666665c-0.6106666666666667 -0.408 -0.5093333333333333 -0.7386666666666667 0.224 -0.7386666666666667h8Z" fill="none" stroke="#000000" stroke-linecap="round" stroke-linejoin="round" stroke-width="2.6667"></path>
  <path d="M10.104 11.525333333333332c0.30933333333333335 -0.6639999999999999 0.816 -0.6639999999999999 1.128 0l2.5466666666666664 5.458666666666667H18.666666666666664c0.7333333333333334 0 0.9093333333333333 0.424 0.3893333333333333 0.944L14.813333333333333 22.170666666666666l1.72 5.978666666666666c0.20266666666666666 0.704 -0.1413333333333333 0.9653333333333333 -0.7653333333333332 0.576L10.666666666666666 25.54133333333333l-5.093333333333333 3.1839999999999997c-0.6213333333333333 0.3893333333333333 -0.9653333333333333 0.13333333333333333 -0.7653333333333332 -0.576l1.7093333333333334 -5.978666666666666L2.272 17.927999999999997c-0.5173333333333333 -0.5333333333333333 -0.344 -0.944 0.3893333333333333 -0.944h4.890666666666666Z" fill="none" stroke="#000000" stroke-linecap="round" stroke-linejoin="round" stroke-width="2.6667"></path>
  <path d="M52.77066666666667 11.525333333333332c0.30933333333333335 -0.6639999999999999 0.816 -0.6639999999999999 1.128 0l2.5466666666666664 5.458666666666667H61.33333333333333c0.7333333333333334 0 0.9093333333333333 0.424 0.3893333333333333 0.944l-4.242666666666667 4.242666666666667 1.7093333333333334 5.978666666666666c0.20266666666666666 0.704 -0.1413333333333333 0.9653333333333333 -0.7653333333333332 0.576L53.33333333333333 25.54133333333333l-5.093333333333333 3.1839999999999997c-0.6213333333333333 0.3893333333333333 -0.9653333333333333 0.13333333333333333 -0.7653333333333332 -0.576l1.7093333333333334 -5.978666666666666 -4.245333333333333 -4.242666666666667c-0.5173333333333333 -0.5333333333333333 -0.344 -0.944 0.3893333333333333 -0.944h4.890666666666666Z" fill="none" stroke="#000000" stroke-linecap="round" stroke-linejoin="round" stroke-width="2.6667"></path>
</svg>