<svg xmlns="http://www.w3.org/2000/svg" fill="none" viewBox="0 0 48 48" id="Customer-Support-7--Streamline-Flex" height="48" width="48">
  <desc>
    Customer Support 7 Streamline Icon: https://streamlinehq.com
  </desc>
  <g id="customer-support-7--customer-headphones-help-microphone-person-profile-support">
    <path id="Union" fill="#ff7972" fill-rule="evenodd" d="M21.15826285714286 0.8571428571428571c-6.158811428571428 0 -11.285657142857143 1.5373062857142856 -14.880822857142855 4.872205714285714C2.6603108571428566 9.084582857142857 0.8571428571428571 14.013462857142855 0.8571428571428571 20.230354285714284c0 4.140548571428571 0.5504674285714285 7.032582857142857 1.4944011428571429 9.456617142857143 0.8056902857142857 2.0690057142857143 1.887336 3.7484914285714286 2.9724445714285714 5.433257142857142 0.1622742857142857 0.25199999999999995 0.32465142857142854 0.5043428571428571 0.48620571428571424 0.7577142857142857 1.2790285714285714 2.0077714285714285 1.8540342857142857 4.424914285714285 1.8471085714285713 6.944228571428571 -0.0024342857142857144 0.8893714285714286 -0.004182857142857143 1.783542857142857 -0.004182857142857143 2.529942857142857 0 0.9469714285714286 0.76752 1.7142857142857142 1.7142857142857142 1.7142857142857142h20.794525714285715c0.9468 0 1.7142857142857142 -0.7673142857142856 1.7142857142857142 -1.7142857142857142V41.389714285714284c0.10035428571428572 -0.45154285714285713 0.57744 -0.9294857142857142 1.3989942857142856 -0.9294857142857142h1.744217142857143c3.7872 0 6.857142857142857 -3.069942857142857 6.857142857142857 -6.85710857142857V30.716571428571427l1.0206857142857142 -0.024994285714285712c0.7056 -0.0038399999999999997 1.4022857142857141 -0.17112 2.0324571428571425 -0.49035428571428574 0.6373714285714286 -0.3228 1.190057142857143 -0.7926171428571428 1.6086857142857143 -1.37352 1.027542857142857 -1.4256685714285715 0.5382857142857143 -3.074022857142857 0.05931428571428571 -4.1316 -0.5204571428571428 -1.1491885714285712 -1.3789714285714285 -2.3750742857142852 -2.1994285714285713 -3.4947085714285713 -0.22868571428571427 -0.312 -0.456 -0.6175885714285715 -0.6791999999999999 -0.9178971428571429l0 -0.00003428571428571428c-0.6212571428571428 -0.8358857142857142 -1.212 -1.6306971428571426 -1.720457142857143 -2.408022857142857 -0.7134857142857143 -1.090182857142857 -1.0700571428571428 -1.8662742857142856 -1.1410285714285713 -2.362285714285714 -0.7645714285714286 -5.346548571428571 -3.346285714285714 -9.088799999999999 -7.013039999999999 -11.445737142857142C30.241474285714283 1.751286857142857 25.728514285714283 0.8571428571428571 21.15826285714286 0.8571428571428571Z" clip-rule="evenodd" stroke-width="3.4286"></path>
    <path id="Union_2" fill="#0c098c" fill-rule="evenodd" d="M23.640068571428568 3.8571428571428568c0 -1.656853714285714 -1.343142857142857 -3 -3 -3s-3 1.3431462857142857 -3 3v11.514102857142857c-1.1855657142857141 0.3550628571428571 -2.2360114285714285 0.947862857142857 -3.0948342857142856 1.80576 -1.5304114285714285 1.5286971428571428 -2.2188 3.665691428571429 -2.2188 6.091405714285713 0 2.42568 0.6883885714285713 4.5626742857142855 2.2188 6.091371428571429 1.5301371428571429 1.528422857142857 3.6684685714285714 2.2155085714285714 6.09552 2.2155085714285714 0.5026285714285714 0 0.9929142857142857 -0.029451428571428573 1.467942857142857 -0.08979428571428572 3.9945942857142853 3.3786171428571428 10.72608 6.4173599999999995 18.84421714285714 6.4173599999999995 1.183542857142857 0 2.142857142857143 -0.9593142857142857 2.142857142857143 -2.142857142857143s-0.9593142857142857 -2.1428914285714282 -2.142857142857143 -2.1428914285714282c-5.993485714285714 0 -11.00976 -1.9057714285714282 -14.357108571428572 -4.1210057142857135 0.04734857142857142 -0.04467428571428571 0.09418285714285714 -0.09010285714285714 0.1404342857142857 -0.13631999999999997 1.5304114285714285 -1.5286971428571428 2.2188 -3.665691428571429 2.2188 -6.091371428571429 0 -2.4257142857142857 -0.6883885714285713 -4.562708571428571 -2.2188 -6.091405714285713 -0.8591657142857142 -0.8582057142857141 -1.910057142857143 -1.451142857142857 -3.0961714285714286 -1.8061371428571427V3.8571428571428568Zm5.538205714285714 0.18730285714285713c0.5123314285714285 -1.066817142857143 1.792457142857143 -1.5163302857142857 2.8592914285714284 -1.0040091428571427C36.676114285714284 5.2680685714285715 40.078628571428574 9.334148571428571 40.97725714285714 15.61710857142857c0.05417142857142857 0.3768342857142857 0.3510857142857143 1.063337142857143 1.0474285714285714 2.12712 0.4902857142857142 0.7492457142857143 1.0570285714285714 1.5119314285714285 1.6628571428571428 2.3271085714285715l0 0.00010285714285714286c0.22045714285714282 0.2964342857142857 0.44571428571428573 0.5998285714285714 0.6747428571428571 0.912 0.8022857142857143 1.0947085714285714 1.6710857142857143 2.3317714285714284 2.2038857142857142 3.507462857142857 0.4803428571428571 1.0611771428571428 1.0594285714285714 2.8952914285714284 -0.10422857142857142 4.510491428571428 -0.9133714285714286 1.2675085714285714 -2.4178285714285717 2.018297142857143 -3.9665142857142857 2.0189485714285715 -1.1832 0.00047999999999999996 -2.1431999999999998 -0.9584914285714284 -2.1435428571428568 -2.141965714285714 -0.0006857142857142857 -1.1834742857142857 0.9582857142857143 -2.1432685714285715 2.1418285714285714 -2.1437485714285716 0.11348571428571427 -0.00003428571428571428 0.22628571428571428 -0.03586285714285714 0.31954285714285713 -0.08982857142857142 -0.028457142857142854 -0.09123428571428571 -0.07508571428571428 -0.21754285714285715 -0.1512 -0.38564571428571426 -0.3250285714285714 -0.7174971428571428 -0.9370285714285713 -1.624045714285714 -1.7567999999999997 -2.7422057142857144 -0.18754285714285712 -0.2562857142857143 -0.3867428571428571 -0.5242285714285714 -0.5917714285714285 -0.7997142857142857l0 -0.00003428571428571428c-0.6277714285714285 -0.8447314285714285 -1.308342857142857 -1.7601599999999997 -1.8750857142857145 -2.6262171428571426 -0.7241142857142857 -1.1065028571428572 -1.5048 -2.478342857142857 -1.7036571428571428 -3.8669485714285714 -0.6911999999999999 -4.832468571428572 -3.1710857142857143 -7.696457142857143 -6.552445714285714 -9.320262857142856 -1.0668342857142856 -0.5123314285714285 -1.5163542857142855 -1.7924914285714284 -1.004022857142857 -2.8593257142857142Zm13.677154285714286 22.79670857142857c-0.0006857142857142857 -0.00044571428571428567 -0.0020571428571428568 -0.009634285714285713 -0.0010285714285714284 -0.026125714285714283 0.0020571428571428568 0.01834285714285714 0.0017142857142857142 0.026605714285714285 0.0010285714285714284 0.026125714285714283ZM11.570297142857143 7.188274285714285c1.0376571428571426 -0.5690742857142856 1.4175085714285713 -1.8715885714285714 0.8484342857142857 -2.909245714285714 -0.5691085714285714 -1.037677714285714 -1.871622857142857 -1.4175325714285714 -2.90928 -0.8484342857142857C3.773211428571428 6.5765142857142855 0.8571428571428571 12.420102857142856 0.8571428571428571 20.306057142857142c0 4.080651428571429 0.5361771428571428 6.96504 1.4712582857142857 9.397988571428572 0.8025394285714286 2.0880685714285714 1.8844560000000001 3.78048 2.942376 5.435382857142857 0.1476685714285714 0.23108571428571428 0.2948914285714286 0.46114285714285713 0.4408114285714285 0.6918857142857143 1.2117257142857143 1.9141714285714286 1.7651314285714286 4.2298285714285715 1.7585485714285713 6.668571428571428 -0.0024 0.8821714285714284 -0.00408 1.7670857142857141 -0.00408 2.5004571428571425 0 1.183542857142857 0.9593828571428571 2.142857142857143 2.142857142857143 2.142857142857143 1.1834399999999998 0 2.142857142857143 -0.9593142857142857 2.142857142857143 -2.142857142857143 0 -0.7278857142857142 0.0016799999999999999 -1.608342857142857 0.004045714285714285 -2.489142857142857 0.008297142857142855 -3.072342857142857 -0.6872228571428571 -6.2300571428571425 -2.42304 -8.972194285714286 -0.15682285714285715 -0.24774857142857143 -0.30905142857142853 -0.48661714285714286 -0.45685714285714285 -0.7184571428571428l-0.00023999999999999998 -0.00037714285714285714c-1.0727657142857143 -1.6830171428571428 -1.909782857142857 -2.9961257142857143 -2.546845714285714 -4.653668571428572C5.624468571428571 26.333862857142858 5.142857142857142 23.992902857142855 5.142857142857142 20.306057142857142c0 -6.75984 2.4091199999999997 -10.914 6.42744 -13.117782857142856Zm18.30582857142857 32.43195428571428c1.1834399999999998 0 2.142857142857143 0.9593142857142857 2.142857142857143 2.142857142857143v3.235885714285714c0 1.183542857142857 -0.9594171428571429 2.142857142857143 -2.142857142857143 2.142857142857143 -1.1834742857142857 0 -2.142857142857143 -0.9593142857142857 -2.142857142857143 -2.142857142857143v-3.235885714285714c0 -1.183542857142857 0.9593828571428571 -2.142857142857143 2.142857142857143 -2.142857142857143Z" clip-rule="evenodd" stroke-width="3.4286"></path>
  </g>
</svg>