<svg xmlns="http://www.w3.org/2000/svg" fill="#000000" class="bi bi-discord" viewBox="0 0 48 48" id="Discord--Streamline-Bootstrap" height="48" width="48">
  <desc>
    Discord Streamline Icon: https://streamlinehq.com
  </desc>
  <path d="M40.635 8.721a39.599999999999994 39.599999999999994 0 0 0 -9.771 -3.0329999999999995 0.15000000000000002 0.15000000000000002 0 0 0 -0.156 0.07500000000000001c-0.42299999999999993 0.75 -0.891 1.7309999999999999 -1.218 2.4989999999999997a36.599999999999994 36.599999999999994 0 0 0 -10.974 0 24 24 0 0 0 -1.236 -2.4989999999999997 0.15000000000000002 0.15000000000000002 0 0 0 -0.156 -0.07500000000000001c-3.375 0.5820000000000001 -6.66 1.602 -9.771 3.0329999999999995a0.12 0.12 0 0 0 -0.063 0.05399999999999999C1.068 18.072 -0.639 27.141000000000002 0.198 36.096000000000004q0.009000000000000001 0.066 0.063 0.11099999999999999a39.900000000000006 39.900000000000006 0 0 0 11.985 6.0600000000000005 0.15000000000000002 0.15000000000000002 0 0 0 0.168 -0.056999999999999995q1.389 -1.8900000000000001 2.4539999999999997 -3.987a0.15000000000000002 0.15000000000000002 0 0 0 -0.03 -0.177l-0.05399999999999999 -0.033a27 27 0 0 1 -3.7439999999999998 -1.785 0.15000000000000002 0.15000000000000002 0 0 1 -0.06 -0.198l0.045 -0.056999999999999995q0.381 -0.28500000000000003 0.744 -0.585a0.15000000000000002 0.15000000000000002 0 0 1 0.153 -0.021c7.857000000000001 3.588 16.362 3.588 24.123 0a0.15000000000000002 0.15000000000000002 0 0 1 0.159 0.021q0.363 0.30000000000000004 0.744 0.585a0.15000000000000002 0.15000000000000002 0 0 1 -0.012 0.255 24 24 0 0 1 -3.7470000000000003 1.782 0.15000000000000002 0.15000000000000002 0 0 0 -0.09 0.09 0.15000000000000002 0.15000000000000002 0 0 0 0.009000000000000001 0.123c0.72 1.395 1.545 2.7270000000000003 2.4509999999999996 3.987a0.15000000000000002 0.15000000000000002 0 0 0 0.168 0.056999999999999995 39.599999999999994 39.599999999999994 0 0 0 12.003 -6.0600000000000005 0.15000000000000002 0.15000000000000002 0 0 0 0.063 -0.11099999999999999c1.002 -10.353 -1.677 -19.347 -7.098000000000001 -27.317999999999998a0.09 0.09 0 0 0 -0.06 -0.056999999999999995m-24.594 21.921c-2.367 0 -4.314 -2.1719999999999997 -4.314 -4.836s1.911 -4.839 4.314 -4.839c2.4210000000000003 0 4.35 2.19 4.314 4.839 0 2.664 -1.911 4.836 -4.314 4.836m15.948 0c-2.364 0 -4.314 -2.1719999999999997 -4.314 -4.836s1.911 -4.839 4.314 -4.839c2.4210000000000003 0 4.353 2.19 4.314 4.839 0 2.664 -1.893 4.836 -4.314 4.836" stroke-width="3"></path>
</svg>