<svg xmlns="http://www.w3.org/2000/svg" viewBox="0 0 48 48" id="Shopping-Bag-Check--Streamline-Ultimate" height="48" width="48">
  <desc>
    Shopping Bag Check Streamline Icon: https://streamlinehq.com
  </desc>
  <path d="M40.2 47.76a7.5 7.5 0 0 0 7.44 -8.44L44.48 14a2.2 2.2 0 0 0 0 -0.32l-2 -5.86a3.54 3.54 0 0 0 -3.28 -2.06h-2a1.5 1.5 0 0 0 -1.5 1.48 1.52 1.52 0 0 0 1.5 1.52h2a0.4 0.4 0 0 1 0.34 0.24l1.1 3a0.48 0.48 0 0 1 0 0.46 0.5 0.5 0 0 1 -0.42 0.22h-5.52a0.52 0.52 0 0 1 -0.5 -0.52v-2a10 10 0 0 0 -20 0v2a0.52 0.52 0 0 1 -0.5 0.52H8a0.54 0.54 0 0 1 -0.42 -0.24 0.48 0.48 0 0 1 0 -0.46l1.26 -3a0.52 0.52 0 0 1 0.38 -0.3h2a1.5 1.5 0 0 0 1.5 -1.52 1.48 1.48 0 0 0 -1.5 -1.48h-2a3.52 3.52 0 0 0 -3.1 2L3.62 13.66a1.3 1.3 0 0 0 -0.1 0.4L0.36 39.32a7.5 7.5 0 0 0 7.44 8.44ZM17.46 29.52a0.68 0.68 0 0 1 0.96 0l3.02 2.9a0.5 0.5 0 0 0 0.7 0l8.96 -8.94a0.66 0.66 0 0 1 0.96 0L34.52 26a0.66 0.66 0 0 1 0 0.96l-12.24 12.24a0.68 0.68 0 0 1 -0.96 0L15 32.96a0.68 0.68 0 0 1 0 -0.98Zm0.74 -19.28a6 6 0 1 1 12 0v2a0.52 0.52 0 0 1 -0.5 0.52h-11a0.52 0.52 0 0 1 -0.5 -0.52Z" fill="#000000" stroke-width="2"></path>
</svg>