<svg xmlns="http://www.w3.org/2000/svg" fill="none" viewBox="0 0 64 64" id="Search-Check-2-Fill--Streamline-Sharp-Fill-Material" height="64" width="64">
  <desc>
    Search Check 2 Fill Streamline Icon: https://streamlinehq.com
  </desc>
  <path fill="#000000" d="m23.733066666666666 35.33333333333333 13.866666666666667 -13.866666666666667 -2.8 -2.8666666666666663 -11.066666666666666 11.066666666666666 -5.799999999999999 -5.866666666666667 -2.8666666666666663 2.8 8.666666666666666 8.733333333333333Zm3 12.599999999999998c-5.911066666666667 0 -10.944399999999998 -2.077733333333333 -15.099999999999998 -6.2333333333333325 -4.155546666666666 -4.1556 -6.2333333333333325 -9.188933333333333 -6.2333333333333325 -15.099999999999998 0 -5.911066666666667 2.0777866666666664 -10.933333333333332 6.2333333333333325 -15.066666666666666C15.788666666666666 7.3999999999999995 20.822 5.333333333333333 26.733066666666666 5.333333333333333c5.911066666666667 0 10.933333333333332 2.077773333333333 15.066666666666666 6.2333333333333325 4.133333333333333 4.1556 6.2 9.188933333333333 6.2 15.099999999999998 0 2.6222666666666665 -0.43333333333333335 5.066666666666666 -1.2999999999999998 7.333333333333333 -0.8666666666666667 2.2666666666666666 -2.077733333333333 4.333333333333333 -3.6333333333333333 6.2l15.599999999999998 15.599999999999998 -2.8 2.8666666666666663 -15.599999999999998 -15.599999999999998c-1.8666666666666665 1.5556 -3.9444 2.7556 -6.2333333333333325 3.6 -2.288933333333333 0.8443999999999999 -4.722266666666666 1.2666666666666666 -7.299999999999999 1.2666666666666666Z" stroke-width="1.3333"></path>
</svg>