<svg xmlns="http://www.w3.org/2000/svg" fill="none" viewBox="0 0 48 48" id="Shipping-Truck-Style-2--Streamline-Ultimate" height="48" width="48">
  <desc>
    Shipping Truck Style 2 Streamline Icon: https://streamlinehq.com
  </desc>
  <path stroke="#000000" stroke-linecap="round" stroke-linejoin="round" stroke-miterlimit="10" d="M31.5 15h4c0.6 0 1.2 0.39998 1.6 0.79998L40.5 21l4.6 1.6c0.8 0.2 1.4 1 1.4 1.8v8.6c0 1 -0.8 2 -2 2h-5.9762" stroke-width="2"></path>
  <path stroke="#000000" stroke-linecap="round" stroke-linejoin="round" stroke-miterlimit="10" d="M34.5 39c2.2092 0 4 -1.7908 4 -4s-1.7908 -4 -4 -4 -4 1.7908 -4 4 1.7908 4 4 4Z" stroke-width="2"></path>
  <path stroke="#000000" stroke-linecap="round" stroke-linejoin="round" stroke-miterlimit="10" d="M31.5 32.382V11c0 -1.2 -0.8 -2 -2 -2h-26c-1.2 0 -2 0.8 -2 2v22c0 1 0.8 2 2 2h2.99448m23.99392 0h-7.9934" stroke-width="2"></path>
  <path stroke="#000000" stroke-linecap="round" stroke-linejoin="round" stroke-miterlimit="10" d="M10.5 39c2.20914 0 4 -1.7908 4 -4s-1.79086 -4 -4 -4 -4 1.7908 -4 4 1.79086 4 4 4Z" stroke-width="2"></path>
  <path stroke="#000000" stroke-linecap="round" stroke-linejoin="round" stroke-miterlimit="10" d="M18.5 39c2.2092 0 4 -1.7908 4 -4s-1.7908 -4 -4 -4c-2.20914 0 -4 1.7908 -4 4s1.79086 4 4 4Z" stroke-width="2"></path>
  <path stroke="#000000" stroke-linecap="round" stroke-linejoin="round" stroke-miterlimit="10" d="M10.5 9v14" stroke-width="2"></path>
  <path stroke="#000000" stroke-linecap="round" stroke-linejoin="round" stroke-miterlimit="10" d="M20.5 9v14" stroke-width="2"></path>
</svg>